<svg xmlns="http://www.w3.org/2000/svg" width="100px" height="100px" viewBox="0 0 18.26 26.09"><defs><style>.cls-1{fill:#feffe3;}</style></defs><g id="Layer_2" data-name="Layer 2"><g id="Layer_1-2" data-name="Layer 1"><path class="cls-1" d="M9.13,1.46a6.42,6.42,0,1,0,6.42,6.42A6.43,6.43,0,0,0,9.13,1.46ZM12,10.92a.1.1,0,0,1,0,.07l-1.51.88a.07.07,0,0,1-.11-.07V8.47a.08.08,0,0,0-.11-.07l-2.27.83V13a.08.08,0,0,1-.12.07l-1.47-.85a.07.07,0,0,1,0-.07V4.49a.07.07,0,0,1,0-.07l1.47-.85a.08.08,0,0,1,.12.07V7.47l2.32-.84s.06,0,.06-.08V2.73a.07.07,0,0,1,.11-.07l1.51.88a.08.08,0,0,1,0,.07Z"/><path class="cls-1" d="M9.13,0A9.12,9.12,0,0,0,0,9.13c0,6.85,9.13,17,9.13,17s9.13-10.11,9.13-17A9.12,9.12,0,0,0,9.13,0Zm0,15.3a7.42,7.42,0,1,1,7.42-7.42A7.43,7.43,0,0,1,9.13,15.3Z"/></g></g></svg>